<svg width="35" height="36" viewBox="0 0 35 36" fill="none" xmlns="http://www.w3.org/2000/svg">
<g clip-path="url(#clip0_12_623)">
<path d="M0 18C0 8.335 7.835 0.5 17.5 0.5C27.165 0.5 35 8.335 35 18C35 27.665 27.165 35.5 17.5 35.5C7.835 35.5 0 27.665 0 18Z" fill="#89A9F9" fill-opacity="0.19"/>
<path d="M24.499 11.778V21.889C24.499 22.095 24.417 22.293 24.271 22.439C24.125 22.585 23.927 22.667 23.721 22.667C23.515 22.667 23.317 22.585 23.171 22.439C23.025 22.293 22.943 22.095 22.943 21.889V13.655L11.827 24.772C11.681 24.918 11.483 25 11.277 25C11.071 25 10.873 24.918 10.727 24.772C10.581 24.626 10.499 24.428 10.499 24.222C10.499 24.016 10.581 23.818 10.727 23.672L21.844 12.556H13.61C13.404 12.556 13.206 12.474 13.06 12.328C12.914 12.182 12.833 11.984 12.833 11.778C12.833 11.572 12.914 11.374 13.06 11.228C13.206 11.082 13.404 11 13.61 11H23.721C23.927 11 24.125 11.082 24.271 11.228C24.417 11.374 24.499 11.572 24.499 11.778Z" fill="url(#paint0_linear_12_623)"/>
</g>
<defs>
<linearGradient id="paint0_linear_12_623" x1="17.6174" y1="11" x2="17.3806" y2="25" gradientUnits="userSpaceOnUse">
<stop stop-color="#F0F0F9"/>
<stop offset="1" stop-color="#ADABF5"/>
</linearGradient>
<clipPath id="clip0_12_623">
<rect width="35" height="35" fill="white" transform="translate(0 0.5)"/>
</clipPath>
</defs>
</svg>
